<svg viewBox="0 0 112 50" fill="none" xmlns="http://www.w3.org/2000/svg" xmlns:xlink="http://www.w3.org/1999/xlink" x="0" y="0"><defs><clipPath id="clip14_1_907">
<rect width="24" height="24" fill="white" transform="matrix(0, -1, 1, 0, 13, 37)"/>
</clipPath></defs><g id="Frame 1000005130">
<g id="Frame 1000005116">
<rect x="0" y="0" width="50" height="50" rx="25" fill="#E8EDF2"/>
<g id="mingcute:up-line_3" clip-path="url(#clip14_1_907)">
<g id="Group_5">
<path id="Vector_46" fill-rule="evenodd" clip-rule="evenodd" d="M21.293,25.71c-0.187,-0.19 -0.293,-0.44 -0.293,-0.71c0,-0.27 0.106,-0.52 0.293,-0.71l5.657,-5.65c0.189,-0.19 0.441,-0.29 0.703,-0.28c0.263,0 0.513,0.1 0.699,0.29c0.185,0.18 0.29,0.43 0.293,0.7c0.002,0.26 -0.099,0.51 -0.281,0.7l-4.95,4.95l4.95,4.95c0.182,0.19 0.283,0.44 0.281,0.7c-0.003,0.27 -0.108,0.52 -0.293,0.7c-0.186,0.19 -0.436,0.29 -0.699,0.29c-0.262,0.01 -0.514,-0.09 -0.703,-0.28z" fill="#020202"/>
</g>
</g>
</g>
<g id="Frame 1000004329_2">
<rect x="112" y="50" width="50" height="50" rx="25" transform="rotate(-180, 112, 50)" fill="#BE968E"/>
<g id="mingcute:up-line_4">
<g id="Group_6">
<path id="Vector_47" fill-rule="evenodd" clip-rule="evenodd" d="M90.707,24.29c0.187,0.19 0.293,0.44 0.293,0.71c0,0.27 -0.106,0.52 -0.293,0.71l-5.657,5.65c-0.189,0.19 -0.441,0.29 -0.703,0.28c-0.263,0 -0.513,-0.1 -0.699,-0.29c-0.185,-0.18 -0.29,-0.43 -0.293,-0.7c-0.002,-0.26 0.099,-0.51 0.281,-0.7l4.95,-4.95l-4.95,-4.95c-0.182,-0.19 -0.283,-0.44 -0.281,-0.7c0.003,-0.27 0.108,-0.52 0.293,-0.7c0.186,-0.19 0.436,-0.29 0.699,-0.29c0.262,-0.01 0.514,0.09 0.703,0.28z" fill="white"/>
</g>
</g>
</g>
</g></svg>