<svg viewBox="0 0 18.1667 18.1667" fill="none" xmlns="http://www.w3.org/2000/svg" xmlns:xlink="http://www.w3.org/1999/xlink" x="0" y="0"><g id="Vector_60">
<path d="M0.7503,2.4167c0,-0.9205 0.746,-1.6667 1.666,-1.6667h3.334c0.92,0 1.666,0.7462 1.666,1.6667v3.3333c0,0.9205 -0.746,1.6667 -1.666,1.6667h-3.334c-0.92,0 -1.666,-0.7462 -1.666,-1.6667z" stroke="#8A8A8A" stroke-width="1.5"/>
<path d="M17.4163,4.0834c0,1.8409 -1.492,3.3333 -3.333,3.3333c-1.841,0 -3.333,-1.4924 -3.333,-3.3333c0,-1.841 1.492,-3.3334 3.333,-3.3334c1.841,0 3.333,1.4924 3.333,3.3334z" stroke="#8A8A8A" stroke-width="1.5"/>
<path d="M7.4163,14.0834c0,1.8409 -1.492,3.3333 -3.333,3.3333c-1.841,0 -3.333,-1.4924 -3.333,-3.3333c0,-1.841 1.492,-3.3334 3.333,-3.3334c1.841,0 3.333,1.4924 3.333,3.3334z" stroke="#8A8A8A" stroke-width="1.5"/>
<path d="M10.7503,12.4167c0,-0.9205 0.746,-1.6667 1.666,-1.6667h3.334c0.92,0 1.666,0.7462 1.666,1.6667v3.3333c0,0.9205 -0.746,1.6667 -1.666,1.6667h-3.334c-0.92,0 -1.666,-0.7462 -1.666,-1.6667z" stroke="#8A8A8A" stroke-width="1.5"/>
</g></svg>