<svg viewBox="0 0 6.3704 11.0745" fill="none" xmlns="http://www.w3.org/2000/svg" xmlns:xlink="http://www.w3.org/1999/xlink" x="0" y="0"><path id="Vector_99" fill-rule="evenodd" clip-rule="evenodd" d="M0.2442,6.1263c-0.156,-0.156 -0.244,-0.368 -0.244,-0.589c0,-0.221 0.088,-0.433 0.244,-0.589l4.714,-4.714c0.157,-0.152 0.368,-0.236 0.586,-0.234c0.219,0.002 0.428,0.089 0.582,0.244c0.155,0.154 0.242,0.363 0.244,0.582c0.002,0.218 -0.082,0.429 -0.234,0.586l-4.125,4.125l4.125,4.125c0.152,0.157 0.236,0.368 0.234,0.586c-0.002,0.219 -0.089,0.428 -0.244,0.582c-0.154,0.155 -0.363,0.242 -0.582,0.244c-0.218,0.002 -0.429,-0.082 -0.586,-0.234z" fill="currentColor"/></svg>