<svg viewBox="0 0 11 18.0059" fill="none" xmlns="http://www.w3.org/2000/svg" xmlns:xlink="http://www.w3.org/1999/xlink" x="0" y="0"><path id="evaFacebookFill2" d="M11,0.5059c0,-0.13 -0.0527,-0.26 -0.1464,-0.35c-0.0938,-0.1 -0.221,-0.15 -0.3536,-0.15h-2.5c-1.2589,-0.06 -2.4914,0.38 -3.4283,1.22c-0.9369,0.84 -1.5019,2.02 -1.5717,3.28v2.7h-2.5c-0.1326,0 -0.2598,0.05 -0.3536,0.15c-0.0937,0.09 -0.1464,0.22 -0.1464,0.35v2.6c0,0.13 0.0527,0.26 0.1464,0.35c0.0938,0.1 0.221,0.15 0.3536,0.15h2.5v6.7c0,0.13 0.0527,0.26 0.1464,0.35c0.0938,0.1 0.221,0.15 0.3536,0.15h3c0.1326,0 0.2598,-0.05 0.3536,-0.15c0.0937,-0.09 0.1464,-0.22 0.1464,-0.35v-6.7h2.62c0.1112,0 0.2197,-0.03 0.3085,-0.1c0.0887,-0.07 0.1526,-0.16 0.1815,-0.27l0.72,-2.6c0.0199,-0.07 0.0226,-0.15 0.0078,-0.23c-0.0147,-0.07 -0.0465,-0.14 -0.0929,-0.2c-0.0464,-0.06 -0.1061,-0.11 -0.1745,-0.15c-0.0685,-0.03 -0.1439,-0.05 -0.2204,-0.05h-3.35v-2.7c0.0249,-0.25 0.1411,-0.48 0.326,-0.64c0.1849,-0.17 0.4252,-0.26 0.674,-0.26h2.5c0.1326,0 0.2598,-0.05 0.3536,-0.15c0.0937,-0.09 0.1464,-0.22 0.1464,-0.35z" fill="currentColor"/></svg>