<svg viewBox="0 0 20.001 20.0007" fill="none" xmlns="http://www.w3.org/2000/svg" xmlns:xlink="http://www.w3.org/1999/xlink" x="0" y="0"><path id="Vector_81" d="M11.0285,0.0002c0.73,0 1.459,0.01 2.189,0.02l0.194,0.01c0.224,0.01 0.445,0.02 0.712,0.03c1.064,0.05 1.79,0.22 2.427,0.46c0.66,0.26 1.216,0.6 1.772,1.16c0.508,0.5 0.902,1.1 1.153,1.77c0.247,0.64 0.415,1.36 0.465,2.43c0.012,0.26 0.022,0.49 0.03,0.71l0.006,0.19c0.018,0.73 0.025,1.46 0.023,2.19l0.001,0.75v1.31c0.002,0.73 -0.005,1.46 -0.023,2.19l-0.006,0.19c-0.008,0.22 -0.018,0.45 -0.03,0.71c-0.05,1.07 -0.22,1.79 -0.466,2.43c-0.25,0.67 -0.644,1.27 -1.153,1.77c-0.5,0.51 -1.105,0.9 -1.772,1.15c-0.637,0.25 -1.363,0.42 -2.427,0.47c-0.267,0.01 -0.488,0.02 -0.712,0.03l-0.194,0.01c-0.729,0.01 -1.459,0.02 -2.189,0.02h-0.746h-1.309c-0.73,0 -1.459,-0.01 -2.189,-0.02l-0.194,-0.01c-0.237,-0.01 -0.475,-0.02 -0.712,-0.03c-1.064,-0.05 -1.79,-0.22 -2.428,-0.47c-0.667,-0.25 -1.272,-0.64 -1.771,-1.15c-0.509,-0.5 -0.903,-1.1 -1.154,-1.77c-0.247,-0.64 -0.415,-1.36 -0.465,-2.43c-0.011,-0.23 -0.021,-0.47 -0.03,-0.71l-0.005,-0.19c-0.018,-0.73 -0.027,-1.46 -0.025,-2.19v-2.06c-0.003,-0.73 0.005,-1.46 0.022,-2.19l0.007,-0.19c0.008,-0.22 0.018,-0.45 0.03,-0.71c0.05,-1.07 0.218,-1.79 0.465,-2.43c0.251,-0.67 0.646,-1.27 1.156,-1.77c0.499,-0.51 1.103,-0.9 1.77,-1.16c0.638,-0.24 1.363,-0.41 2.428,-0.46l0.712,-0.03l0.194,-0.01c0.729,-0.01 1.459,-0.02 2.188,-0.02zM10.0005,5.0002c-0.662,-0.01 -1.32,0.11 -1.935,0.36c-0.615,0.25 -1.174,0.61 -1.646,1.08c-0.472,0.47 -0.847,1.02 -1.102,1.63c-0.256,0.61 -0.388,1.27 -0.388,1.93c0,0.66 0.132,1.32 0.388,1.93c0.255,0.61 0.63,1.17 1.102,1.63c0.472,0.47 1.031,0.83 1.646,1.08c0.615,0.25 1.273,0.37 1.935,0.36c1.326,0 2.598,-0.53 3.536,-1.46c0.937,-0.94 1.464,-2.21 1.464,-3.54c0,-1.33 -0.527,-2.6 -1.464,-3.54c-0.938,-0.93 -2.21,-1.46 -3.536,-1.46zM10.0005,7.0002c0.399,-0.01 0.795,0.07 1.165,0.21c0.37,0.15 0.707,0.37 0.992,0.65c0.284,0.28 0.51,0.61 0.664,0.98c0.155,0.37 0.234,0.76 0.234,1.16c0,0.4 -0.079,0.79 -0.233,1.16c-0.154,0.37 -0.38,0.7 -0.664,0.98c-0.285,0.28 -0.622,0.5 -0.992,0.65c-0.371,0.14 -0.766,0.22 -1.165,0.21c-0.796,0 -1.559,-0.32 -2.121,-0.88c-0.563,-0.56 -0.879,-1.32 -0.879,-2.12c0,-0.8 0.316,-1.56 0.879,-2.12c0.562,-0.56 1.325,-0.88 2.121,-0.88zM15.2505,3.5002c-0.323,0.01 -0.628,0.15 -0.851,0.38c-0.224,0.24 -0.349,0.55 -0.349,0.87c0,0.32 0.125,0.63 0.349,0.87c0.223,0.23 0.528,0.37 0.851,0.38c0.332,0 0.649,-0.13 0.884,-0.37c0.234,-0.23 0.366,-0.55 0.366,-0.88c0,-0.33 -0.132,-0.65 -0.366,-0.88c-0.235,-0.24 -0.552,-0.37 -0.884,-0.37z" fill="currentColor"/></svg>