<svg viewBox="0 0 20 20" fill="none" xmlns="http://www.w3.org/2000/svg" xmlns:xlink="http://www.w3.org/1999/xlink" x="0" y="0"><path id="Vector_82" fill-rule="evenodd" clip-rule="evenodd" d="M7.429,6.97h3.714v1.85c0.535,-1.06 1.907,-2.02 3.968,-2.02c3.951,0 4.889,2.12 4.889,6v7.2h-4v-6.31c0,-2.22 -0.535,-3.46 -1.897,-3.46c-1.889,0 -2.674,1.34 -2.674,3.46v6.31h-4zM0.57,19.83h4v-13.03h-4zM5.143,2.55c0,0.34 -0.066,0.67 -0.196,0.98c-0.129,0.31 -0.318,0.59 -0.557,0.82c-0.484,0.48 -1.138,0.75 -1.82,0.75c-0.681,0 -1.334,-0.27 -1.818,-0.75c-0.238,-0.23 -0.427,-0.51 -0.556,-0.82c-0.129,-0.31 -0.195,-0.64 -0.196,-0.98c0,-0.68 0.27,-1.32 0.753,-1.8c0.484,-0.48 1.137,-0.75 1.818,-0.75c0.682,0 1.336,0.27 1.819,0.75c0.482,0.48 0.753,1.12 0.753,1.8z" fill="currentColor"/></svg>