<svg viewBox="0 0 18.363 20.75" fill="none" xmlns="http://www.w3.org/2000/svg" xmlns:xlink="http://www.w3.org/1999/xlink" x="0" y="0"><g id="shopping bag">
<path id="Rectangle 788_2" opacity="0.4" d="M1.5714,8.01c0.35,-1.89 2,-3.26 3.93,-3.26h7.36c1.93,0 3.58,1.37 3.93,3.26l1.5,8c0.46,2.46 -1.43,4.74 -3.93,4.74h-10.36c-2.5,0 -4.39,-2.28 -3.93,-4.74z" fill="currentColor"/>
<path id="Rectangle 760 (Stroke)" fill-rule="evenodd" clip-rule="evenodd" d="M5.4314,3.75c0,-2.07 1.68,-3.75 3.75,-3.75c2.07,0 3.75,1.68 3.75,3.75v3c0,0.41 -0.34,0.75 -0.75,0.75c-0.41,0 -0.75,-0.34 -0.75,-0.75v-3c0,-1.24 -1.01,-2.25 -2.25,-2.25c-1.24,0 -2.25,1.01 -2.25,2.25v3c0,0.41 -0.34,0.75 -0.75,0.75c-0.41,0 -0.75,-0.34 -0.75,-0.75z" fill="currentColor"/>
</g></svg>