<svg viewBox="0 0 20 20" fill="none" xmlns="http://www.w3.org/2000/svg" xmlns:xlink="http://www.w3.org/1999/xlink" x="0" y="0"><path id="Star 2" d="M8.0328,1.27c0.8047,-1.69 3.1297,-1.69 3.9344,0l1.3907,2.93c0.3195,0.67 0.9372,1.14 1.6517,1.25l3.1097,0.47c1.7994,0.27 2.5178,2.57 1.2158,3.89l-2.2502,2.28c-0.517,0.52 -0.7529,1.28 -0.6309,2.02l0.5312,3.22c0.3074,1.86 -1.5736,3.28 -3.183,2.4l-2.7814,-1.52c-0.6391,-0.35 -1.4025,-0.35 -2.0416,0l-2.7814,1.52c-1.6094,0.88 -3.4904,-0.54 -3.183,-2.4l0.5312,-3.22c0.122,-0.74 -0.1139,-1.5 -0.6309,-2.02l-2.2502,-2.28c-1.302,-1.32 -0.5836,-3.62 1.2158,-3.89l3.1097,-0.47c0.7145,-0.11 1.3322,-0.58 1.6517,-1.25z" fill="currentColor"/></svg>