<svg viewBox="0 0 21 17.5" fill="none" xmlns="http://www.w3.org/2000/svg" xmlns:xlink="http://www.w3.org/1999/xlink" x="0" y="0"><path id="Vector_83" d="M19.21,0.15c0,0 1.942,-0.75 1.78,1.09c-0.054,0.75 -0.539,3.41 -0.917,6.27l-1.295,8.5c0,0 -0.108,1.24 -1.079,1.46c-0.972,0.22 -2.429,-0.76 -2.698,-0.98c-0.216,-0.16 -4.048,-2.59 -5.397,-3.78c-0.377,-0.33 -0.809,-0.98 0.054,-1.73l5.666,-5.41c0.648,-0.65 1.295,-2.17 -1.403,-0.33l-7.554,5.14c0,0 -0.864,0.54 -2.483,0.05l-3.507,-1.08c0,0 -1.295,-0.81 0.917,-1.62c5.396,-2.54 12.034,-5.14 17.916,-7.58z" fill="currentColor"/></svg>