<svg viewBox="0 0 20.92 17" fill="none" xmlns="http://www.w3.org/2000/svg" xmlns:xlink="http://www.w3.org/1999/xlink" x="0" y="0"><path id="Vector_80" d="M20.92,2c-0.77,0.35 -1.6,0.58 -2.46,0.69c0.88,-0.53 1.56,-1.37 1.88,-2.38c-0.83,0.5 -1.75,0.85 -2.72,1.05c-0.79,-0.86 -1.9,-1.36 -3.16,-1.36c-2.35,0 -4.27,1.92 -4.27,4.29c0,0.34 0.04,0.67 0.11,0.98c-3.56,-0.18 -6.73,-1.89 -8.84,-4.48c-0.37,0.63 -0.58,1.37 -0.58,2.15c0,1.49 0.75,2.81 1.91,3.56c-0.71,0 -1.37,-0.2 -1.95,-0.5v0.03c0,2.08 1.48,3.82 3.44,4.21c-0.6293,0.17 -1.2899,0.2 -1.93,0.07c0.2716,0.85 0.8035,1.6 1.521,2.13c0.7175,0.54 1.5844,0.83 2.479,0.85c-1.5164,1.2 -3.396,1.85 -5.33,1.84c-0.34,0 -0.68,-0.02 -1.02,-0.06c1.9,1.22 4.16,1.93 6.58,1.93c7.88,0 12.21,-6.54 12.21,-12.21c0,-0.19 0,-0.37 -0.01,-0.56c0.84,-0.6 1.56,-1.36 2.14,-2.23z" fill="currentColor"/></svg>