<svg viewBox="0 0 20 20" fill="none" xmlns="http://www.w3.org/2000/svg" xmlns:xlink="http://www.w3.org/1999/xlink" x="0" y="0"><path id="combo shape" d="M10,0c5.523,0 10,4.48 10,10c0,5.52 -4.477,10 -10,10c-1.528,0 -2.976,-0.34 -4.271,-0.96l-4.354,0.73c-0.675,0.11 -1.262,-0.47 -1.152,-1.15l0.713,-4.39c-0.601,-1.28 -0.936,-2.72 -0.936,-4.23c0,-5.52 4.477,-10 10,-10zM6.889,6c-0.491,0 -0.889,0.4 -0.889,0.89c0,3.93 3.184,7.11 7.111,7.11c0.491,0 0.889,-0.4 0.889,-0.89v-0.44c0,-0.54 -0.33,-1.02 -0.833,-1.23l-0.467,-0.18c-0.521,-0.21 -1.116,0.02 -1.367,0.52c-0.024,-0.01 -1.121,-0.23 -2,-1.11c-0.879,-0.88 -1.105,-1.98 -1.11,-2c0.502,-0.25 0.728,-0.85 0.519,-1.37l-0.186,-0.47c-0.202,-0.5 -0.689,-0.83 -1.231,-0.83z" fill="currentColor"/></svg>