<svg viewBox="0 0 65.9456 50.9998" fill="none" xmlns="http://www.w3.org/2000/svg" xmlns:xlink="http://www.w3.org/1999/xlink" x="0" y="0"><g id="Group_5">
<path id="Vector_70" d="M49.5874,22.3602c-0.54,-1.8815 -1.59,-3.283 -3.389,-4.0325c-1.827,-0.7612 -3.552,-0.4697 -5.198,0.5374c-1.665,-3.9127 -4.472,-5.9895 -8.437,-6.3213c-0.033,0.0287 -0.065,0.0573 -0.098,0.0885c-0.216,0.2056 -0.469,0.3357 -0.731,0.3956c-0.215,0.121 -0.436,0.2329 -0.659,0.337c-0.012,0.0468 -0.023,0.0924 -0.039,0.1379c0.181,-0.0468 0.374,-0.0702 0.577,-0.0833c0.124,-0.0078 0.246,-0.013 0.369,-0.0156c3.734,-0.0754 7.012,2.3032 8.244,5.9817c0.267,0.7977 0.391,0.8367 1.054,0.3397c0.017,-0.0118 0.032,-0.0261 0.049,-0.0378c2.385,-1.7683 5.689,-0.9616 6.998,1.7267c0.207,0.4229 0.34,0.8862 0.468,1.3429c0.191,0.6753 0.265,0.7248 0.949,0.5049c0.083,-0.0274 0.168,-0.0495 0.261,-0.0729l0.285,-0.9356c-0.24,0.0365 -0.466,0.0716 -0.705,0.108" fill="#89ADA1"/>
<path id="Vector_71" d="M64.4944,30.6099c-0.321,-1.8633 -1.424,-3.0448 -3.214,-3.5185c-0.623,-0.1639 -1.292,-0.1418 -2.018,-0.2134c-0.779,-1.7735 -2.066,-3.158 -3.891,-4.0064l-0.197,0.8575c0.053,0.0182 0.094,0.0338 0.133,0.0546c1.439,0.7495 2.465,1.892 3.133,3.3754c0.325,0.7209 0.323,0.7222 1.085,0.6402c0.102,-0.0104 0.203,-0.026 0.306,-0.0299c1.049,-0.0469 1.985,0.2537 2.77,0.9668c0.999,0.9069 1.36,2.3812 0.896,3.5731c-0.467,1.1958 -1.315,1.7098 -2.836,1.7111c-2.171,0.0026 -4.34,0.0026 -6.51,0.0026c-0.163,0 -0.328,-0.0039 -0.491,0.0104c-0.238,0.0209 -0.407,0.177 -0.375,0.4008c0.02,0.1432 0.185,0.2993 0.323,0.3826c0.109,0.0663 0.278,0.0429 0.42,0.0429c2.313,0 4.627,0.0078 6.941,-0.0065c0.384,-0.0026 0.781,-0.0494 1.149,-0.16c1.604,-0.4815 2.681,-2.3279 2.377,-4.0846" fill="#89ADA1"/>
<path id="Vector_72" d="M59.6414,13.0864c-0.095,-0.0325 -0.201,-0.0416 -0.301,-0.0494c-0.735,-0.0547 -1.47,-0.1015 -2.204,-0.1588c-0.426,-0.0312 -0.851,-0.0742 -1.266,-0.1119c-0.355,-0.9095 -0.691,-1.7775 -1.032,-2.6415c-0.107,-0.2693 -0.209,-0.5439 -0.353,-0.7924c-0.194,-0.337 -0.524,-0.3292 -0.719,0.0078c-0.114,0.1952 -0.188,0.4138 -0.273,0.6233c-0.38,0.9343 -0.758,1.8685 -1.144,2.8184c-1.072,0.082 -2.112,0.1601 -3.151,0.2407c-0.164,0.0131 -0.331,0.0131 -0.488,0.0534c-0.449,0.1158 -0.539,0.4359 -0.218,0.769c0.143,0.1471 0.306,0.2746 0.464,0.406c0.76,0.6272 1.52,1.2518 2.294,1.8881c-0.286,1.0696 -0.572,2.1262 -0.849,3.1841c-0.236,0.8978 -0.164,0.9902 0.754,0.9251c-0.026,0.0963 -0.06,0.2238 -0.1,0.3722c-0.239,0.8796 -0.679,2.4788 -0.679,2.4788c0.003,0 0.007,-0.0026 0.009,-0.0026c-0.101,0.4021 -0.175,0.7196 -0.262,1.0332c-1.175,4.2302 -2.591,8.3772 -4.159,12.4721c-0.067,0.1744 -0.157,0.3488 -0.169,0.5283c-0.007,0.1159 0.085,0.3162 0.173,0.3436c0.124,0.0377 0.325,-0.0078 0.422,-0.0963c0.111,-0.1015 0.15,-0.2876 0.209,-0.4424c0.255,-0.6728 0.509,-1.3468 0.767,-2.0364c1.319,-0.1315 2.595,-0.259 3.922,-0.3904c-0.042,0.1913 -0.058,0.311 -0.092,0.4229c-0.231,0.7729 -0.466,1.5445 -0.699,2.3175c-0.041,0.1379 -0.108,0.2862 -0.089,0.4189c0.017,0.1211 0.117,0.2889 0.216,0.3214c0.099,0.0313 0.275,-0.0494 0.359,-0.1379c0.091,-0.0976 0.123,-0.2563 0.17,-0.3929c0.174,-0.5309 0.348,-1.0618 0.515,-1.594c1.203,-3.8308 2.189,-7.7215 3.175,-11.6121c0.015,-0.0638 0.479,-2.1522 0.802,-3.6317c0.118,-0.5413 0.217,-1.0007 0.27,-1.2505c0.412,0.268 0.767,0.501 1.126,0.7287c0.222,0.1405 0.448,0.3383 0.721,0.1132c0.237,-0.1965 0.146,-0.4437 0.078,-0.6871c-0.216,-0.7781 -0.427,-1.5562 -0.636,-2.3343c-0.097,-0.3566 -0.183,-0.7144 -0.274,-1.0788c0.847,-0.6766 1.665,-1.3298 2.482,-1.9843c0.144,-0.1158 0.299,-0.2238 0.42,-0.3618c0.234,-0.2693 0.148,-0.5595 -0.19,-0.6779M51.5734,33.7563c-1.307,0.1262 -2.542,0.2459 -3.836,0.3708c0.021,-0.1535 0.018,-0.2693 0.053,-0.3721c0.21,-0.6259 0.44,-1.2453 0.638,-1.8738c0.078,-0.2472 0.189,-0.3877 0.459,-0.406c1.096,-0.0715 2.191,-0.1535 3.393,-0.2394c-0.246,0.8744 -0.469,1.6747 -0.707,2.5205zM52.4744,30.4889c-1.212,0.0924 -2.383,0.1822 -3.636,0.2772c0.268,-0.8224 0.51,-1.5602 0.764,-2.337c1.161,-0.121 2.309,-0.2407 3.524,-0.367c-0.229,0.8536 -0.436,1.6253 -0.651,2.4268M53.3124,27.2996c-1.134,0.1315 -2.26,0.2616 -3.483,0.4021c0.245,-0.8302 0.466,-1.5758 0.69,-2.3318c1.127,-0.0885 2.216,-0.1743 3.373,-0.2654c-0.202,0.7638 -0.383,1.4547 -0.58,2.1964M54.1834,23.8384v0.0026c-0.038,0.1587 -0.074,0.3149 -0.115,0.4853c-1.081,0.1067 -2.152,0.2134 -3.329,0.3306c0.212,-0.8016 0.403,-1.5251 0.601,-2.2707c1.075,-0.0767 2.111,-0.1509 3.201,-0.2303c-0.013,0.1353 -0.323,1.5367 -0.358,1.6825zM54.7604,21.3921c-1.065,0.0911 -2.092,0.1783 -3.205,0.2719c0.083,-0.3643 0.161,-0.7091 0.238,-1.0435c0.072,-0.3136 0.142,-0.6168 0.218,-0.9213c0.022,-0.0885 0.104,-0.1796 0.183,-0.2342c0.62,-0.4281 1.246,-0.8471 1.896,-1.2843c0.425,0.2732 0.784,0.5049 1.192,0.7677c-0.118,0.5543 -0.238,1.106 -0.358,1.6721c-0.054,0.2537 -0.11,0.51 -0.165,0.7716M58.2624,14.1807c-0.577,0.462 -1.164,0.9135 -1.739,1.378c-0.414,0.3331 -0.414,0.3657 -0.259,0.8966c0.26,0.8874 0.514,1.7748 0.683,2.7403c-0.232,-0.147 -0.464,-0.294 -0.696,-0.4437c-0.584,-0.3786 -1.173,-0.7521 -1.753,-1.1412c-0.295,-0.1977 -0.555,-0.1821 -0.844,0.0222c-0.621,0.4359 -1.255,0.8536 -1.886,1.2765c-0.167,0.1119 -0.343,0.2121 -0.586,0.3617c0.032,-0.2108 0.04,-0.3461 0.075,-0.4723c0.207,-0.7352 0.393,-1.4795 0.642,-2.1991c0.169,-0.4841 0.099,-0.8146 -0.32,-1.1204c-0.545,-0.4007 -1.055,-0.8509 -1.578,-1.2817c-0.152,-0.1249 -0.294,-0.2615 -0.528,-0.4723c0.842,-0.0664 1.565,-0.1249 2.29,-0.1783c0.184,-0.013 0.368,-0.0208 0.551,-0.0156c0.38,0.0104 0.593,-0.1639 0.727,-0.5283c0.318,-0.8705 0.672,-1.728 1.054,-2.6987c0.132,0.2785 0.234,0.4658 0.312,0.661c0.265,0.6493 0.545,1.2947 0.771,1.9584c0.152,0.445 0.419,0.6037 0.865,0.6167c0.797,0.0222 1.591,0.0859 2.387,0.1354c0.075,0.0039 0.149,0.0208 0.339,0.0468c-0.221,0.2004 -0.357,0.3396 -0.509,0.4593" fill="#BE968E"/>
<path id="Vector_73" d="M10.5254,21.5456c0.166,-0.6102 0.289,-1.1971 0.486,-1.7592c1.134,-3.2322 4.373,-5.6811 7.998,-5.3936c2.452,0.1952 4.385,1.3546 5.881,3.2999c0.063,0.0807 0.118,0.1692 0.166,0.2603c0.101,0.1912 0.06,0.3669 -0.098,0.5022c-0.188,0.1614 -0.387,0.1276 -0.55,-0.0364c-0.13,-0.1301 -0.228,-0.2928 -0.343,-0.4372c-1.443,-1.7944 -3.317,-2.7534 -5.589,-2.7989c-1.893,-0.0378 -3.499,0.7638 -4.855,2.0676c-1.212,1.1659 -1.942,2.5972 -2.168,4.2836c-0.116,0.864 -0.121,0.864 -0.969,0.9018c-2.738,0.1223 -5.314,2.307 -5.994,5.0851c-0.413,1.6929 -0.291,3.3298 0.504,4.8939c0.121,0.2381 0.272,0.4632 0.421,0.6858c0.423,0.631 0.924,0.9512 1.768,0.9485c12.591,-0.0377 25.182,-0.0299 37.773,-0.0312c0.163,0 0.351,-0.0364 0.483,0.0312c0.139,0.0716 0.279,0.2356 0.319,0.3852c0.054,0.2017 -0.092,0.3552 -0.301,0.3917c-0.16,0.0273 -0.326,0.0299 -0.489,0.0299c-7.453,0.0026 -14.905,0.0039 -22.357,0.0039c-5.283,0 -10.564,-0.0117 -15.847,0.0091c-0.627,0.0026 -1.094,-0.1887 -1.523,-0.6298c-0.943,-0.9655 -1.463,-2.1418 -1.711,-3.4469c-0.606,-3.1997 0.845,-6.4801 3.589,-8.173c0.945,-0.5829 1.838,-0.8679 3.405,-1.0748" fill="#89ADA1"/>
<path id="Vector_74" d="M5.9544,29.4596c0.133,-2.1652 0.985,-3.849 2.93,-4.8574c0.126,-0.0651 0.267,-0.1497 0.397,-0.1458c0.14,0.0052 0.277,0.1054 0.416,0.164c-0.061,0.1366 -0.104,0.2889 -0.192,0.4034c-0.056,0.0715 -0.183,0.0819 -0.276,0.1262c-1.658,0.7872 -2.732,2.6415 -2.605,4.4996c0.012,0.1653 0.07,0.3396 0.032,0.4919c-0.033,0.1366 -0.167,0.2485 -0.256,0.3708c-0.116,-0.0924 -0.299,-0.1639 -0.336,-0.2824c-0.079,-0.2511 -0.08,-0.527 -0.111,-0.7703" fill="#89ADA1"/>
<path id="Vector_75" d="M17.3234,17.223c-0.163,0.1561 -0.258,0.2889 -0.387,0.3591c-0.177,0.0976 -0.388,0.1315 -0.572,0.2173c-1.396,0.6572 -2.317,1.7333 -2.761,3.2258c-0.041,0.1379 -0.046,0.2992 -0.122,0.4111c-0.069,0.1015 -0.25,0.2317 -0.317,0.2017c-0.121,-0.0546 -0.239,-0.2069 -0.274,-0.3409c-0.032,-0.1249 0.036,-0.2824 0.078,-0.4203c0.563,-1.8061 1.707,-3.08 3.437,-3.8047c0.166,-0.069 0.356,-0.1224 0.531,-0.1146c0.111,0.0053 0.215,0.1393 0.387,0.2629" fill="#89ADA1"/>
<path id="Vector_76" d="M38.2444,19.3218c-0.14,-0.1379 -0.259,-0.216 -0.324,-0.3266c-0.163,-0.285 -0.286,-0.5933 -0.455,-0.8757c-0.429,-0.7209 -1.014,-1.2869 -1.734,-1.7111c-0.123,-0.0729 -0.27,-0.1236 -0.358,-0.2264c-0.066,-0.0768 -0.109,-0.2564 -0.065,-0.3266c0.065,-0.1002 0.211,-0.1718 0.335,-0.1965c0.082,-0.0156 0.189,0.0624 0.277,0.1119c1.169,0.6519 1.994,1.62 2.538,2.8419c0.047,0.108 0.088,0.2498 0.057,0.3539c-0.034,0.1158 -0.153,0.2069 -0.272,0.3539" fill="#89ADA1"/>
<path id="Vector_77" d="M44.5494,19.8228c0.645,-0.0195 1.192,0.233 1.686,0.6233c0.108,0.0859 0.23,0.2004 0.261,0.3227c0.028,0.1132 -0.027,0.2863 -0.108,0.3735c-0.055,0.0611 -0.221,0.0403 -0.33,0.0195c-0.071,-0.013 -0.134,-0.0898 -0.193,-0.1444c-0.483,-0.4464 -1.05,-0.6116 -1.693,-0.5166c-0.249,0.0377 -0.546,0.0872 -0.571,-0.259c-0.021,-0.3136 0.27,-0.3656 0.522,-0.3929c0.142,-0.0157 0.284,-0.0183 0.427,-0.0261" fill="#89ADA1"/>
<path id="Vector_78" d="M49.5374,6.9133c0.06,0.0521 0.193,0.121 0.262,0.2317c0.377,0.592 0.737,1.1945 1.103,1.793c0.125,0.2043 0.132,0.3969 -0.095,0.5309c-0.206,0.1223 -0.36,0.0104 -0.465,-0.1587c-0.382,-0.6129 -0.767,-1.2245 -1.125,-1.853c-0.161,-0.281 -0.018,-0.5452 0.319,-0.5439" fill="#89ADA1"/>
<path id="Vector_79" d="M54.6254,6.1041c0,0.3917 0.002,0.7847 -0.002,1.1763c-0.002,0.2017 -0.064,0.3839 -0.297,0.3943c-0.267,0.013 -0.344,-0.1796 -0.346,-0.4086c-0.004,-0.7846 -0.002,-1.568 -0.005,-2.3526c0,-0.2134 0.075,-0.3734 0.301,-0.3878c0.27,-0.0169 0.344,0.1666 0.344,0.4021c0,0.3917 0,0.7847 0,1.1763z" fill="#89ADA1"/>
<path id="Vector_80" d="M62.8144,15.0317c-0.389,0 -0.777,0.0039 -1.167,-0.0013c-0.207,-0.0026 -0.38,-0.0963 -0.371,-0.3214c0.009,-0.2069 0.155,-0.3292 0.375,-0.3292c0.757,0 1.515,-0.0039 2.272,-0.0026c0.214,0 0.365,0.1054 0.367,0.3279c0.001,0.2316 -0.163,0.3188 -0.372,0.3214c-0.369,0.0039 -0.736,0 -1.105,0v0.0039z" fill="#89ADA1"/>
<path id="Vector_81" d="M57.9614,9.5314c-0.099,-0.1574 -0.222,-0.2836 -0.256,-0.4307c-0.022,-0.0924 0.082,-0.2238 0.145,-0.3266c0.31,-0.5062 0.626,-1.0097 0.941,-1.5133c0.044,-0.069 0.084,-0.1705 0.147,-0.1913c0.136,-0.0442 0.334,-0.1106 0.416,-0.0481c0.085,0.065 0.133,0.3123 0.077,0.4125c-0.307,0.5556 -0.651,1.0904 -0.983,1.6304c-0.054,0.0872 -0.099,0.1848 -0.168,0.255c-0.067,0.069 -0.162,0.1106 -0.318,0.2108" fill="#89ADA1"/>
<path id="Vector_82" d="M45.8494,14.3642c0.346,0 0.692,0 1.036,0c0.202,0 0.381,0.0664 0.395,0.2941c0.017,0.2602 -0.158,0.3578 -0.392,0.3578c-0.731,0.0026 -1.464,0.0039 -2.195,0.0026c-0.2,0 -0.38,-0.0611 -0.396,-0.2914c-0.02,-0.2681 0.167,-0.3514 0.394,-0.3553c0.386,-0.0052 0.773,-0.0013 1.158,-0.0013v-0.0078z" fill="#89ADA1"/>
<path id="Vector_83" d="M48.3754,11.24c0.001,0.2954 -0.237,0.4528 -0.479,0.3422c-0.241,-0.1093 -0.463,-0.2615 -0.692,-0.3969c-0.299,-0.1769 -0.613,-0.3357 -0.887,-0.5465c-0.094,-0.0715 -0.16,-0.311 -0.112,-0.4059c0.051,-0.0976 0.301,-0.1939 0.39,-0.1471c0.56,0.2941 1.103,0.6233 1.644,0.9538c0.074,0.0456 0.109,0.1601 0.136,0.2017" fill="#89ADA1"/>
<path id="Vector_84" d="M62.5384,10.4358c-0.046,0.0573 -0.104,0.1757 -0.198,0.2355c-0.482,0.3058 -0.972,0.5986 -1.461,0.894c-0.187,0.1119 -0.363,0.0924 -0.471,-0.1028c-0.104,-0.1874 -0.054,-0.3592 0.138,-0.4711c0.509,-0.2992 1.014,-0.6102 1.532,-0.8913c0.234,-0.1275 0.479,0.0416 0.459,0.337" fill="#89ADA1"/>
<path id="Vector_85" d="M19.1304,17.1501c-0.097,0.0768 -0.209,0.2342 -0.349,0.2641c-0.215,0.0469 -0.394,-0.0728 -0.416,-0.3227c-0.019,-0.2212 0.111,-0.3435 0.318,-0.3604c0.228,-0.0182 0.382,0.0872 0.447,0.419z" fill="#89ADA1"/>
<path id="Vector_86" d="M34.6034,15.5457c-0.23,0.147 -0.364,0.2954 -0.497,0.2941c-0.097,0 -0.255,-0.1887 -0.274,-0.311c-0.035,-0.2121 0.128,-0.3592 0.333,-0.3201c0.125,0.0234 0.229,0.1691 0.437,0.337" fill="#89ADA1"/>
<path id="Vector_87" d="M36.9674,8.3916c-1.218,-0.069 -2.407,0.6675 -3.237,1.5393c-0.028,-0.0351 -0.062,-0.0664 -0.1,-0.0937c-0.001,0 -0.004,-0.0013 -0.005,-0.0026c0.618,-0.9421 1.569,-1.8113 2.678,-1.983c0.076,-0.0118 0.062,-0.1315 -0.014,-0.1198c-1.151,0.1783 -2.13,1.0722 -2.768,2.0469c-0.218,-0.0872 -0.473,-0.0157 -0.614,0.186c-0.101,0.1445 -0.119,0.3227 -0.064,0.4776c-0.104,0.0781 -0.217,0.1691 -0.339,0.2732c0.491,-1.2973 1.202,-3.8347 0.257,-5.8737c-0.569,-1.2283 -1.008,-1.9726 -1.33,-2.5582c-0.081,-0.147 -0.155,-0.2836 -0.221,-0.4151c0,0 0,-0.0013 0,-0.0026c-0.021,-0.0403 -0.04,-0.0806 -0.06,-0.1197c-0.003,-0.0091 -0.009,-0.0182 -0.012,-0.0273c-0.016,-0.0312 -0.03,-0.0638 -0.044,-0.095c-0.005,-0.0117 -0.01,-0.0234 -0.016,-0.0351c-0.012,-0.0286 -0.025,-0.0586 -0.037,-0.0872c-0.005,-0.013 -0.01,-0.0247 -0.015,-0.0377c-0.012,-0.0287 -0.023,-0.0586 -0.035,-0.0872c-0.005,-0.0117 -0.009,-0.0234 -0.014,-0.0364c-0.012,-0.0313 -0.023,-0.0638 -0.035,-0.0963c-0.002,-0.0091 -0.006,-0.0183 -0.009,-0.0274c-0.028,-0.0832 -0.052,-0.1678 -0.076,-0.2563c-0.002,-0.0117 -0.005,-0.0221 -0.007,-0.0338c-0.008,-0.0326 -0.016,-0.0651 -0.023,-0.0989c-0.004,-0.0156 -0.007,-0.0313 -0.011,-0.0482c-0.006,-0.0299 -0.011,-0.0598 -0.016,-0.0898c-0.004,-0.0182 -0.007,-0.0364 -0.009,-0.0546c-0.006,-0.0299 -0.011,-0.0599 -0.015,-0.0911c-0.002,-0.0195 -0.005,-0.0377 -0.007,-0.0585c-0.004,-0.0313 -0.008,-0.0638 -0.012,-0.0963c-0.002,-0.0196 -0.004,-0.0391 -0.006,-0.0586c-0.004,-0.0351 -0.007,-0.0729 -0.011,-0.1093c-0.001,-0.0182 -0.003,-0.0351 -0.005,-0.0533c-0.004,-0.056 -0.007,-0.112 -0.01,-0.1718c0,0 -1.329,1.4339 -3.276,2.9134c-1.949,1.4795 -2.746,5.3806 0,7.1281c0,0 -2.814,-1.2309 -4.96,0.3136c-2.021,1.4535 -2.259,2.9134 -3.012,2.6896c0,0 0,0 0.002,0.0013c0,0 0,0 0.001,0.0013c0.001,0.0013 0.004,0.0026 0.005,0.0052c0.261,0.229 5.844,5.0488 10.636,0.9213c-0.262,0.5582 -0.509,1.1893 -0.722,1.8998c0,0 2.96,-1.8699 3.89,-5.0852c0.178,0.0143 0.356,-0.0625 0.467,-0.2199c0.113,-0.1627 0.122,-0.3695 0.041,-0.5361c0.803,-0.8536 1.974,-1.5888 3.161,-1.5211c0.077,0.0039 0.086,-0.1158 0.01,-0.1197" fill="#BE968E"/>
<path id="Vector_88" d="M56.2644,16.4553c0.26,0.8874 0.514,1.7749 0.683,2.7404c-0.232,-0.1471 -0.464,-0.2941 -0.696,-0.4437c-0.584,-0.3787 -1.173,-0.7521 -1.753,-1.1412c-0.295,-0.1978 -0.555,-0.1822 -0.844,0.0221c-0.621,0.4359 -1.255,0.8536 -1.886,1.2765c-0.167,0.1119 -0.343,0.2121 -0.586,0.3617c0.032,-0.2107 0.04,-0.3461 0.075,-0.4723c0.207,-0.7352 0.393,-1.4782 0.642,-2.1991c0.169,-0.484 0.099,-0.8145 -0.32,-1.1203c-0.545,-0.4008 -1.055,-0.851 -1.578,-1.2817c-0.152,-0.1249 -0.294,-0.2616 -0.528,-0.4723c0.842,-0.0664 1.565,-0.125 2.29,-0.1783c0.184,-0.0143 0.369,-0.0208 0.551,-0.0156c0.38,0.0104 0.593,-0.164 0.727,-0.5283c0.318,-0.8705 0.672,-1.728 1.054,-2.6988c0.132,0.2785 0.234,0.4659 0.313,0.6611c0.265,0.6493 0.545,1.2947 0.771,1.9583c0.152,0.445 0.419,0.6051 0.865,0.6168c0.796,0.0221 1.592,0.0859 2.387,0.1353c0.075,0.0039 0.149,0.0208 0.34,0.0468c-0.221,0.2004 -0.358,0.3397 -0.509,0.4607c-0.577,0.4619 -1.164,0.9134 -1.739,1.378c-0.414,0.3331 -0.414,0.3656 -0.259,0.8965" fill="#E2B78C"/>
<path id="Vector_89" d="M5.1334,48.6787c-0.364,0.0833 -0.745,0.1145 -1.144,0.0963c-0.236,-0.0182 -0.471,-0.0572 -0.708,-0.1171c-0.236,-0.0599 -0.427,-0.1822 -0.572,-0.3656c-0.073,-0.0911 -0.13,-0.1913 -0.171,-0.2967c-0.041,-0.1054 -0.074,-0.2095 -0.101,-0.311c-0.036,-0.1653 -0.057,-0.3331 -0.062,-0.5036c-0.005,-0.1704 -0.007,-0.3422 -0.007,-0.5179c0,-0.3955 0.025,-0.7911 0.075,-1.1867c0.05,-0.3956 0.107,-0.7885 0.171,-1.1789c0.063,-0.3904 0.122,-0.7846 0.177,-1.1789c0.054,-0.3956 0.092,-0.7911 0.11,-1.1854c-0.427,0.0547 -0.85,0.0833 -1.268,0.0833c-0.127,-0.0091 -0.257,-0.0182 -0.388,-0.0273c-0.131,-0.0092 -0.261,-0.0365 -0.388,-0.0833c-0.127,-0.0456 -0.246,-0.1145 -0.355,-0.2069c-0.109,-0.0911 -0.195,-0.1978 -0.258,-0.3175c-0.054,-0.1015 -0.095,-0.2043 -0.122,-0.311c-0.027,-0.1054 -0.05,-0.2134 -0.068,-0.324c-0.036,-0.1835 -0.054,-0.3696 -0.054,-0.5582v-0.5726c0,-0.1834 0.002,-0.3721 0.006,-0.566c0.004,-0.1926 0.024,-0.3813 0.062,-0.566c0.027,-0.1471 0.068,-0.2902 0.122,-0.4281c0.054,-0.138 0.131,-0.2577 0.231,-0.3592c0.1,-0.1106 0.22,-0.2004 0.361,-0.2693c0.142,-0.069 0.284,-0.1171 0.43,-0.1445c0.29,-0.0546 0.588,-0.0845 0.892,-0.0897c0.304,-0.0052 0.606,0.0065 0.906,0.0338c0.154,0.0182 0.311,0.039 0.47,0.0624c0.158,0.0235 0.297,0.0859 0.415,0.1861c0.119,0.1015 0.2,0.2225 0.246,0.3657c0.045,0.1431 0.077,0.2914 0.095,0.4476c0.136,-0.0091 0.356,-0.0221 0.661,-0.0417c0.304,-0.0182 0.622,-0.0325 0.953,-0.0416c0.332,-0.0091 0.648,-0.0065 0.948,0.0065c0.299,0.013 0.513,0.0443 0.64,0.0898c0.109,0.0364 0.208,0.0924 0.299,0.1653c0.091,0.0741 0.172,0.1613 0.246,0.2615c0.063,0.1015 0.109,0.2069 0.136,0.3175c0.027,0.1106 0.05,0.2251 0.068,0.3448c0.027,0.2394 0.036,0.4737 0.027,0.704c-0.009,0.2303 -0.036,0.4593 -0.082,0.6896c-0.018,0.0833 -0.039,0.164 -0.062,0.2407c-0.023,0.0781 -0.053,0.1536 -0.089,0.2278c-0.1,0.1652 -0.236,0.294 -0.408,0.3864c-0.11,0.0547 -0.223,0.0924 -0.341,0.1106c-0.118,0.0182 -0.236,0.0326 -0.355,0.0417c-0.236,0.0182 -0.474,0.0234 -0.716,0.0143c-0.24,-0.0091 -0.479,-0.0143 -0.714,-0.0143c0.009,0.1288 0.018,0.255 0.027,0.3799c0.009,0.1236 0.023,0.2499 0.041,0.3787c0.073,0.6714 0.152,1.3402 0.239,2.0065c0.086,0.6662 0.152,1.3363 0.198,2.0064c0.018,0.1653 0.029,0.3305 0.035,0.4971c0.003,0.1653 0.002,0.3305 -0.007,0.4971c0,0.203 -0.041,0.3864 -0.122,0.5517c-0.073,0.1379 -0.175,0.255 -0.307,0.3513c-0.132,0.0963 -0.27,0.1679 -0.415,0.2134" fill="#A08268"/>
<path id="Vector_90" d="M11.5514,41.0783c-0.11,0.1015 -0.234,0.1913 -0.376,0.2693c-0.141,0.0781 -0.284,0.1171 -0.429,0.1171c-0.091,0 -0.18,-0.0156 -0.266,-0.0481c-0.086,-0.0325 -0.171,-0.0664 -0.252,-0.1041c-0.045,-0.0091 -0.118,-0.0429 -0.218,-0.1028c-0.101,-0.0599 -0.169,-0.1041 -0.205,-0.1314c-0.145,-0.1106 -0.286,-0.2316 -0.423,-0.3657c-0.136,-0.1327 -0.25,-0.2823 -0.34,-0.4489c-0.063,-0.1106 -0.113,-0.2277 -0.151,-0.3513c-0.036,-0.1236 -0.045,-0.2498 -0.027,-0.3787c0.018,-0.1379 0.069,-0.2498 0.151,-0.3383c0.082,-0.0872 0.181,-0.147 0.299,-0.1796c0.119,-0.0325 0.243,-0.039 0.374,-0.0208c0.131,0.0182 0.257,0.0599 0.376,0.1236c0.072,0.0456 0.138,0.095 0.198,0.1445c0.059,0.0507 0.124,0.1041 0.197,0.1587c0.074,-0.1288 0.146,-0.2433 0.219,-0.3448c0.082,-0.1106 0.177,-0.2017 0.287,-0.2759c0.109,-0.0728 0.222,-0.1236 0.34,-0.1522c0.118,-0.0273 0.237,-0.0299 0.355,-0.0065c0.118,0.0234 0.227,0.0807 0.326,0.1731c0.074,0.065 0.13,0.1431 0.171,0.2342c0.042,0.0924 0.066,0.1887 0.075,0.2888c0.027,0.3123 -0.023,0.6272 -0.15,0.9447c-0.128,0.3175 -0.305,0.5817 -0.531,0.7938M11.8784,48.3612c-0.19,0.0833 -0.388,0.1405 -0.592,0.1731c-0.204,0.0325 -0.411,0.0533 -0.62,0.0624c-0.19,0 -0.381,-0.0156 -0.572,-0.0481c-0.19,-0.0326 -0.363,-0.108 -0.518,-0.2277c-0.127,-0.0911 -0.219,-0.2134 -0.278,-0.3657c-0.06,-0.1522 -0.103,-0.3058 -0.13,-0.4619c-0.045,-0.2485 -0.077,-0.501 -0.095,-0.7586c-0.018,-0.2577 -0.027,-0.5153 -0.027,-0.7729v-0.0144c-0.045,-0.3864 -0.074,-0.7742 -0.083,-1.1659c-0.009,-0.3903 0.015,-0.7833 0.068,-1.1789c0.018,-0.1561 0.044,-0.3123 0.075,-0.4684c0.032,-0.1561 0.102,-0.2902 0.211,-0.3995c0.091,-0.0911 0.222,-0.1678 0.394,-0.2277c0.173,-0.0598 0.356,-0.1015 0.552,-0.1236c0.195,-0.0221 0.388,-0.0325 0.579,-0.0273c0.191,0.0052 0.35,0.0208 0.477,0.0481c0.227,0.0469 0.436,0.1288 0.628,0.2486c0.19,0.1379 0.317,0.3357 0.381,0.5933c0.045,0.1926 0.059,0.3865 0.041,0.5791c-0.018,0.1925 -0.032,0.3916 -0.041,0.5933c-0.009,0.3318 -0.018,0.6623 -0.027,0.9928c-0.009,0.3305 0.005,0.6572 0.041,0.9799c0.027,0.2394 0.054,0.4801 0.083,0.7247c0.027,0.2434 0.005,0.4854 -0.068,0.7248c-0.036,0.1106 -0.098,0.2134 -0.184,0.311c-0.086,0.0963 -0.184,0.1679 -0.293,0.2134" fill="#A08268"/>
<path id="Vector_91" d="M15.5024,48.637c-0.181,0.0274 -0.37,0.043 -0.566,0.0482c-0.195,0.0052 -0.388,-0.0117 -0.579,-0.0482c-0.11,-0.0182 -0.22,-0.0507 -0.335,-0.0963c-0.114,-0.0455 -0.207,-0.1106 -0.279,-0.1925c-0.1,-0.1015 -0.174,-0.2252 -0.224,-0.3722c-0.051,-0.147 -0.084,-0.2941 -0.102,-0.4411c-0.009,-0.0833 -0.009,-0.242 0,-0.4763c0.009,-0.2342 0.021,-0.4827 0.035,-0.7442c0.014,-0.2616 0.027,-0.5075 0.041,-0.7378c0.014,-0.2304 0.02,-0.3865 0.02,-0.4685c0.018,-0.4411 0.027,-0.8757 0.027,-1.3038v-1.3038c0,-0.2212 0.018,-0.4463 0.054,-0.6754c0.036,-0.2303 0.128,-0.4281 0.273,-0.5933c0.109,-0.1197 0.245,-0.2108 0.409,-0.2759c0.163,-0.0637 0.335,-0.1041 0.518,-0.1171c0.181,-0.0143 0.361,-0.0026 0.538,0.0338c0.178,0.0365 0.334,0.0963 0.471,0.1796c0.109,0.0638 0.204,0.1432 0.286,0.2342c0.082,0.0924 0.16,0.1887 0.232,0.2902c0.299,-0.2667 0.645,-0.4554 1.036,-0.566c0.354,-0.1015 0.717,-0.1327 1.089,-0.0963c0.373,0.0364 0.727,0.1379 1.063,0.3032c0.264,0.1288 0.502,0.3084 0.716,0.5374c0.214,0.2303 0.38,0.4827 0.498,0.7586c0.118,0.2941 0.211,0.5933 0.279,0.8965c0.068,0.3032 0.124,0.6116 0.171,0.9239c0.045,0.3032 0.077,0.6064 0.095,0.9108c0.018,0.3032 0.018,0.6064 0,0.9109c-0.018,0.488 -0.077,0.9421 -0.178,1.365c-0.045,0.147 -0.1,0.2941 -0.163,0.4411c-0.063,0.147 -0.15,0.2707 -0.258,0.3721c-0.036,0.0274 -0.091,0.0547 -0.163,0.0833c-0.074,0.0273 -0.152,0.0521 -0.238,0.0755c-0.086,0.0234 -0.169,0.0429 -0.246,0.0625c-0.077,0.0182 -0.139,0.0273 -0.184,0.0273c-0.209,0.0182 -0.426,0.0117 -0.654,-0.0208c-0.227,-0.0326 -0.426,-0.1132 -0.599,-0.2421c-0.163,-0.1288 -0.281,-0.2901 -0.354,-0.4827c-0.056,-0.1379 -0.092,-0.285 -0.11,-0.4411c-0.018,-0.1562 -0.027,-0.3123 -0.027,-0.4685c0,-0.3487 0.004,-0.6987 0.014,-1.0488c0.009,-0.3487 0.004,-0.6987 -0.014,-1.0487c-0.009,-0.1562 -0.02,-0.3149 -0.034,-0.4763c-0.015,-0.1613 -0.044,-0.3188 -0.089,-0.4762c-0.018,-0.1015 -0.05,-0.2004 -0.095,-0.2967c-0.045,-0.0963 -0.104,-0.1822 -0.178,-0.2551c-0.064,-0.0637 -0.145,-0.0962 -0.245,-0.0962c-0.109,0 -0.204,0.0351 -0.287,0.1041c-0.081,0.0689 -0.151,0.1587 -0.211,0.2693c-0.059,0.1106 -0.106,0.2277 -0.142,0.3513c-0.036,0.1237 -0.064,0.2408 -0.082,0.3514c-0.101,0.497 -0.148,0.9954 -0.143,1.4964c0.005,0.5009 -0.003,1.0006 -0.021,1.4964c-0.009,0.1561 -0.029,0.3201 -0.061,0.4892c-0.033,0.1705 -0.098,0.3201 -0.198,0.449c-0.092,0.1197 -0.21,0.2108 -0.355,0.2758c-0.145,0.0638 -0.296,0.1054 -0.45,0.1236" fill="#A08268"/>
<path id="Vector_92" d="M27.4514,50.5954c-0.455,0.2108 -0.944,0.3396 -1.471,0.3864c-0.527,0.0456 -1.036,0.0052 -1.526,-0.1236c-0.19,-0.0455 -0.379,-0.108 -0.566,-0.1861c-0.186,-0.078 -0.366,-0.1678 -0.538,-0.2693c-0.318,-0.2017 -0.513,-0.4828 -0.586,-0.8419c-0.054,-0.2941 -0.026,-0.5934 0.088,-0.8965c0.114,-0.3032 0.288,-0.5465 0.525,-0.7313c0.281,-0.2212 0.6,-0.2941 0.954,-0.2212c0.227,0.0455 0.444,0.1223 0.654,0.2277c0.208,0.1054 0.43,0.1587 0.667,0.1587c0.19,0 0.382,-0.0546 0.572,-0.1652c0.19,-0.1106 0.34,-0.2433 0.45,-0.4008c0.145,-0.2108 0.246,-0.4411 0.306,-0.6896c0.059,-0.2486 0.102,-0.4971 0.129,-0.7443c-0.209,0.2485 -0.465,0.458 -0.769,0.6271c-0.305,0.1705 -0.62,0.2785 -0.948,0.324c-0.227,0.0183 -0.455,0.0053 -0.681,-0.0416c-0.227,-0.0455 -0.445,-0.1197 -0.654,-0.2212c-0.355,-0.1561 -0.675,-0.3839 -0.96,-0.6831c-0.287,-0.298 -0.507,-0.6272 -0.661,-0.9864c-0.145,-0.3396 -0.243,-0.6922 -0.293,-1.0552c-0.05,-0.3631 -0.08,-0.7287 -0.089,-1.097c0,-0.2576 -0.005,-0.5179 -0.014,-0.7794c-0.009,-0.2616 0.009,-0.5218 0.054,-0.7794c0.018,-0.1106 0.048,-0.2186 0.089,-0.324c0.041,-0.1054 0.097,-0.2004 0.171,-0.2824c0.118,-0.1197 0.258,-0.2069 0.421,-0.2616c0.164,-0.0546 0.323,-0.0923 0.477,-0.1106c0.136,-0.0091 0.273,-0.0182 0.409,-0.0273c0.136,-0.0091 0.272,-0.0143 0.409,-0.0143c0.127,0 0.258,0.0091 0.394,0.0273c0.136,0.0182 0.255,0.0638 0.355,0.138c0.082,0.0637 0.145,0.1496 0.19,0.255c0.045,0.1054 0.073,0.2095 0.082,0.3097c0.027,0.3865 0.016,0.7729 -0.033,1.1581c-0.05,0.3864 -0.065,0.7729 -0.047,1.1581c0.018,0.1834 0.05,0.3656 0.095,0.5452c0.045,0.1795 0.118,0.3422 0.218,0.4892c0.145,0.1926 0.334,0.272 0.566,0.2343c0.231,-0.0365 0.424,-0.1523 0.578,-0.3449c0.181,-0.2394 0.297,-0.5192 0.347,-0.8419c0.05,-0.3214 0.071,-0.6389 0.062,-0.9512c0,-0.1106 -0.009,-0.2732 -0.027,-0.4892c-0.018,-0.216 -0.034,-0.4411 -0.048,-0.6753c-0.014,-0.2343 -0.015,-0.4568 -0.006,-0.6689c0.009,-0.2108 0.036,-0.363 0.082,-0.4554c0,-0.0833 0.027,-0.1561 0.082,-0.2212c0.054,-0.0638 0.122,-0.1171 0.205,-0.1588c0.082,-0.0416 0.171,-0.0754 0.266,-0.1028c0.095,-0.0273 0.184,-0.0455 0.266,-0.0546c0.272,-0.0455 0.549,-0.0599 0.831,-0.0416c0.11,0.0091 0.219,0.0234 0.327,0.0416c0.109,0.0182 0.213,0.0546 0.314,0.1106c0.136,0.0742 0.245,0.2043 0.326,0.393c0.082,0.1886 0.148,0.3955 0.198,0.6206c0.05,0.2252 0.083,0.4503 0.103,0.6754c0.018,0.2251 0.032,0.4112 0.041,0.5582c0.018,0.4047 0.022,0.8042 0.014,1.1997c-0.009,0.3956 -0.014,0.7951 -0.014,1.1998c0,0.6987 -0.036,1.3975 -0.109,2.0962c-0.074,0.6988 -0.232,1.3754 -0.477,2.0273c-0.154,0.4229 -0.394,0.8068 -0.716,1.1516c-0.323,0.3448 -0.684,0.6181 -1.084,0.8211" fill="#A08268"/>
<path id="Vector_93" d="M34.2354,48.8582c-0.2,0.0729 -0.408,0.108 -0.627,0.1041c-0.218,-0.0052 -0.432,-0.026 -0.64,-0.0624c-0.154,-0.0274 -0.307,-0.0781 -0.456,-0.1523c-0.151,-0.0741 -0.27,-0.1743 -0.362,-0.3032c-0.036,-0.0546 -0.068,-0.1496 -0.095,-0.2823c-0.027,-0.1327 -0.047,-0.2759 -0.061,-0.4281c-0.014,-0.1523 -0.026,-0.2967 -0.035,-0.4346c-0.009,-0.138 -0.014,-0.2434 -0.014,-0.3175c-0.009,-0.5335 0.002,-1.067 0.035,-1.6005c0.032,-0.5335 0.079,-1.0618 0.142,-1.5862c-0.145,0.0091 -0.29,0.0143 -0.436,0.0143c-0.145,0 -0.29,-0.0182 -0.435,-0.0547c-0.21,-0.0455 -0.368,-0.147 -0.477,-0.3031c-0.063,-0.0911 -0.107,-0.216 -0.13,-0.3722c-0.023,-0.1561 -0.029,-0.3188 -0.02,-0.4892c0.009,-0.1705 0.027,-0.3384 0.054,-0.5036c0.026,-0.1653 0.059,-0.2993 0.095,-0.3995c0.045,-0.1379 0.12,-0.2641 0.225,-0.3799c0.104,-0.1146 0.219,-0.2004 0.347,-0.2551c0.145,-0.0546 0.296,-0.0807 0.456,-0.0755c0.158,0.0052 0.315,0.0157 0.47,0.0352c0.036,-0.57 0.14,-1.1399 0.314,-1.7111c0.045,-0.1471 0.109,-0.285 0.19,-0.4138c0.082,-0.1288 0.187,-0.2303 0.314,-0.3032c0.109,-0.0547 0.249,-0.0963 0.423,-0.1236c0.172,-0.0273 0.349,-0.0391 0.532,-0.0352c0.181,0.0053 0.356,0.0261 0.524,0.0625c0.169,0.0364 0.307,0.0833 0.415,0.1379c0.173,0.1015 0.296,0.2486 0.368,0.4412c0.036,0.1014 0.056,0.212 0.062,0.3305c0.005,0.1197 -0.003,0.2342 -0.021,0.3448c-0.018,0.2017 -0.044,0.4021 -0.075,0.5998c-0.032,0.1978 -0.061,0.3982 -0.088,0.5999c0.19,0 0.379,0.0052 0.565,0.013c0.187,0.0091 0.371,0.0469 0.552,0.1106c0.154,0.0547 0.293,0.138 0.415,0.2486c0.122,0.1106 0.207,0.2394 0.252,0.3864c0.045,0.1471 0.073,0.2993 0.082,0.4554c0.009,0.1562 0.005,0.3123 -0.013,0.4685c-0.018,0.1197 -0.036,0.2368 -0.054,0.3513c-0.018,0.1158 -0.063,0.2238 -0.136,0.324c-0.045,0.0924 -0.116,0.1679 -0.211,0.2277c-0.095,0.0599 -0.193,0.0989 -0.293,0.1171c-0.218,0.0456 -0.441,0.0664 -0.667,0.0625c-0.227,-0.0039 -0.454,-0.0156 -0.681,-0.0351c-0.018,0.5426 -0.026,1.0826 -0.021,1.6213c0.004,0.5374 0.016,1.0787 0.035,1.6213c0.009,0.2212 0.012,0.4437 0.006,0.6688c-0.005,0.2251 -0.043,0.4398 -0.115,0.6415c-0.063,0.1562 -0.16,0.2902 -0.287,0.3995c-0.127,0.1106 -0.268,0.1887 -0.423,0.2342z" fill="#A08268"/>
<path id="Vector_94" d="M43.8014,48.8022c-0.237,0.0091 -0.477,-0.0117 -0.723,-0.0624c-0.245,-0.0508 -0.455,-0.164 -0.627,-0.3384c-0.109,-0.1014 -0.193,-0.2277 -0.252,-0.3799c-0.059,-0.1523 -0.107,-0.3058 -0.143,-0.4619c-0.199,0.1561 -0.411,0.2992 -0.633,0.4281c-0.223,0.1288 -0.453,0.2303 -0.688,0.3031c-0.209,0.0638 -0.429,0.0963 -0.661,0.0963c-0.231,0 -0.452,-0.0364 -0.66,-0.1106c-0.237,-0.0832 -0.453,-0.2069 -0.647,-0.3721c-0.195,-0.1653 -0.357,-0.354 -0.483,-0.566c-0.219,-0.3397 -0.374,-0.7131 -0.47,-1.1178c-0.096,-0.4047 -0.143,-0.8133 -0.143,-1.227c0,-0.4138 0.05,-0.8211 0.15,-1.2206c0.101,-0.3995 0.255,-0.7742 0.463,-1.1242c0.136,-0.2212 0.284,-0.4294 0.443,-0.6272c0.159,-0.1978 0.344,-0.3748 0.552,-0.5309c0.154,-0.1197 0.317,-0.2251 0.491,-0.3175c0.172,-0.0911 0.349,-0.1705 0.532,-0.2342c0.436,-0.1562 0.886,-0.2486 1.348,-0.2759c0.463,-0.0273 0.922,-0.0052 1.377,0.069c0.29,0.0546 0.572,0.1262 0.844,0.2134c0.273,0.0871 0.545,0.1821 0.818,0.2823c0.1,0.0365 0.178,0.0989 0.239,0.1861c0.059,0.0872 0.079,0.1822 0.061,0.2824c0,0.0182 0.006,0.0299 0.015,0.0351c0.009,0.0052 0.014,0.0156 0.014,0.0351c0.009,0.0365 0.013,0.0924 0.013,0.1653c0.018,0.432 0.045,0.8692 0.082,1.3103c0.009,0.0742 0.023,0.2004 0.041,0.38c0.018,0.1795 0.039,0.3812 0.062,0.6063c0.023,0.2251 0.047,0.4672 0.074,0.7248c0.027,0.2577 0.05,0.501 0.068,0.7313c0.018,0.2303 0.036,0.4346 0.054,0.6142c0.018,0.1795 0.027,0.3058 0.027,0.3786c0.018,0.2212 0.014,0.4437 -0.014,0.6689c-0.027,0.2251 -0.086,0.4437 -0.177,0.6558c-0.1,0.2394 -0.259,0.4229 -0.477,0.5517c-0.145,0.0924 -0.3,0.1535 -0.463,0.1861c-0.163,0.0325 -0.331,0.0533 -0.504,0.0624M39.1404,40.2922c-0.091,0.0365 -0.181,0.0443 -0.272,0.0209c-0.092,-0.0235 -0.155,-0.0846 -0.191,-0.1861c-0.027,-0.0833 -0.025,-0.1601 0.007,-0.2342c0.032,-0.0729 0.083,-0.1419 0.157,-0.2069c0.073,-0.0638 0.151,-0.1223 0.239,-0.1731c0.086,-0.0507 0.171,-0.0989 0.252,-0.1444c0.227,-0.1288 0.465,-0.2342 0.714,-0.3175c0.25,-0.0833 0.501,-0.1523 0.756,-0.2069c0.236,-0.0456 0.472,-0.069 0.708,-0.069c0.237,0 0.472,0.0234 0.708,0.069c0.036,0.0091 0.093,0.0299 0.17,0.0624c0.077,0.0326 0.13,0.0573 0.157,0.0755c0.082,0.0833 0.115,0.1822 0.103,0.2967c-0.015,0.1145 -0.071,0.2004 -0.171,0.255c-0.074,0.0456 -0.152,0.0625 -0.238,0.0482c-0.086,-0.0143 -0.166,-0.0208 -0.239,-0.0208c-0.054,0 -0.145,0.0065 -0.273,0.0208c-0.127,0.0143 -0.263,0.0325 -0.408,0.0546c-0.146,0.0235 -0.279,0.0456 -0.403,0.069c-0.122,0.0234 -0.21,0.039 -0.266,0.0481c-0.236,0.0547 -0.471,0.125 -0.708,0.2069c-0.136,0.0456 -0.27,0.1015 -0.402,0.1653c-0.133,0.0651 -0.266,0.1197 -0.403,0.1652M40.7894,45.1471c0.072,0.1848 0.195,0.3175 0.368,0.3995c0.172,0.0833 0.349,0.0872 0.531,0.0143c0.118,-0.0547 0.219,-0.1327 0.307,-0.2342c0.086,-0.1015 0.166,-0.2108 0.237,-0.3305c0.219,-0.3774 0.355,-0.7769 0.409,-1.1998c0.018,-0.1379 0.023,-0.281 0.014,-0.4281c-0.009,-0.147 -0.036,-0.2849 -0.082,-0.4138c-0.027,-0.0832 -0.073,-0.1587 -0.136,-0.2277c-0.064,-0.0689 -0.136,-0.1171 -0.219,-0.1444c-0.055,-0.0182 -0.111,-0.0234 -0.171,-0.0143c-0.059,0.0091 -0.12,0.0143 -0.183,0.0143h-0.11c-0.1,0.0364 -0.192,0.0872 -0.279,0.1522c-0.086,0.0638 -0.165,0.1328 -0.237,0.2069c-0.173,0.1744 -0.306,0.3813 -0.403,0.6207c-0.095,0.2394 -0.151,0.4828 -0.171,0.7313c-0.009,0.147 -0.006,0.2941 0.007,0.4411c0.014,0.1471 0.053,0.285 0.115,0.4138" fill="#A08268"/>
<path id="Vector_95" d="M49.3454,48.4432c-0.29,0.1834 -0.628,0.281 -1.015,0.2901c-0.386,0.0091 -0.734,-0.0637 -1.042,-0.2212c-0.155,-0.0741 -0.291,-0.1886 -0.409,-0.3448c-0.073,-0.1106 -0.125,-0.2277 -0.157,-0.3513c-0.032,-0.1236 -0.056,-0.2499 -0.074,-0.3787c-0.027,-0.2941 -0.039,-0.5933 -0.034,-0.8965c0.004,-0.3032 0.012,-0.6025 0.021,-0.8966v-0.0273c-0.045,-0.5244 -0.083,-1.0436 -0.11,-1.5588c-0.027,-0.5153 -0.032,-1.0345 -0.014,-1.5589c0.018,-0.4138 0.035,-0.8224 0.048,-1.2271c0.014,-0.4046 0.035,-0.8132 0.062,-1.227c0.018,-0.2759 0.045,-0.5556 0.082,-0.8419c0.036,-0.285 0.131,-0.5465 0.286,-0.7859c0.083,-0.138 0.198,-0.2499 0.347,-0.3383c0.151,-0.0872 0.303,-0.1536 0.457,-0.2004c0.199,-0.0547 0.402,-0.0742 0.606,-0.0547c0.205,0.0182 0.407,0.0508 0.607,0.0963c0.154,0.0364 0.3,0.0872 0.436,0.1522c0.136,0.0651 0.263,0.1471 0.382,0.2486c0.073,0.0741 0.136,0.1639 0.19,0.2693c0.054,0.1054 0.095,0.2134 0.122,0.324c0.045,0.1926 0.063,0.3904 0.054,0.5934c-0.009,0.2017 -0.023,0.4047 -0.041,0.6064c0,0.0455 -0.009,0.1353 -0.027,0.2693c-0.018,0.1327 -0.035,0.2759 -0.048,0.4281c-0.014,0.1523 -0.029,0.2967 -0.047,0.4346c-0.018,0.1379 -0.027,0.2303 -0.027,0.2759c-0.045,0.5426 -0.093,1.0787 -0.143,1.607c-0.05,0.5296 -0.062,1.0644 -0.035,1.607c0.018,0.2667 0.041,0.5361 0.068,0.8067c0.027,0.272 0.051,0.5401 0.069,0.8068c0.018,0.2394 0.032,0.4762 0.041,0.7105c0.009,0.2342 -0.023,0.4619 -0.095,0.6831c-0.11,0.3032 -0.296,0.5374 -0.56,0.7027" fill="#A08268"/>
<path id="Vector_96" d="M55.6814,48.8439c-0.473,0.0182 -0.948,0.0117 -1.424,-0.0208c-0.477,-0.0326 -0.934,-0.1497 -1.369,-0.3514c-0.255,-0.1288 -0.486,-0.2966 -0.696,-0.5035c-0.208,-0.2069 -0.381,-0.4294 -0.518,-0.6689c-0.227,-0.3955 -0.383,-0.821 -0.47,-1.2765c-0.086,-0.4554 -0.121,-0.9082 -0.102,-1.3584c0.018,-0.3032 0.042,-0.6064 0.069,-0.9109c0.027,-0.3032 0.09,-0.6025 0.19,-0.8965c0.082,-0.2395 0.189,-0.4711 0.32,-0.6962c0.131,-0.2251 0.288,-0.4294 0.47,-0.6142c0.219,-0.2303 0.466,-0.4254 0.743,-0.5855c0.278,-0.1614 0.561,-0.2876 0.851,-0.3787c0.545,-0.1743 1.111,-0.2368 1.697,-0.186c0.586,0.0507 1.137,0.2043 1.655,0.4619c0.255,0.1288 0.483,0.3032 0.688,0.5244c0.204,0.2212 0.356,0.4645 0.456,0.7313c0.1,0.2576 0.15,0.5296 0.15,0.8145c0,0.285 -0.032,0.5609 -0.095,0.8276c-0.045,0.1835 -0.106,0.3657 -0.183,0.5452c-0.078,0.1796 -0.18,0.3383 -0.308,0.4763c-0.163,0.1834 -0.363,0.3331 -0.599,0.4476c-0.236,0.1145 -0.473,0.1952 -0.708,0.242c-0.409,0.0924 -0.824,0.1145 -1.247,0.069c-0.422,-0.0456 -0.838,-0.1236 -1.246,-0.2342c-0.045,-0.0183 -0.077,-0.0091 -0.095,0.0273c-0.027,0.0364 -0.042,0.0872 -0.042,0.1522c0,0.0651 0.003,0.1315 0.007,0.2004c0.005,0.069 0.014,0.138 0.027,0.2069c0.014,0.069 0.029,0.1223 0.047,0.1588c0.027,0.0924 0.063,0.1652 0.11,0.2212c0.036,0.0364 0.092,0.0715 0.171,0.1041c0.077,0.0325 0.159,0.0572 0.245,0.0754c0.086,0.0183 0.172,0.0352 0.258,0.0482c0.087,0.013 0.157,0.0208 0.211,0.0208c0.617,0.0273 1.244,-0.0234 1.881,-0.1522c0.072,-0.0183 0.148,-0.0352 0.225,-0.0482c0.077,-0.0143 0.151,-0.039 0.225,-0.0755c0.054,-0.0273 0.113,-0.0416 0.177,-0.0416c0.163,-0.0091 0.32,0.0534 0.47,0.1861c0.151,0.134 0.248,0.2784 0.293,0.4346c0.036,0.1561 0.039,0.3227 0.007,0.4971c-0.032,0.1743 -0.075,0.3409 -0.13,0.497c-0.063,0.1926 -0.18,0.3605 -0.347,0.5036c-0.168,0.1431 -0.347,0.2459 -0.539,0.311c-0.245,0.0742 -0.494,0.1236 -0.749,0.1522c-0.254,0.0274 -0.513,0.0508 -0.776,0.069M53.2554,39.492c0.074,0.1288 0.092,0.2486 0.054,0.3592c-0.036,0.1106 -0.1,0.1977 -0.19,0.2615c-0.091,0.0638 -0.19,0.0924 -0.299,0.0833c-0.11,-0.0091 -0.201,-0.0781 -0.273,-0.2069c-0.073,-0.1197 -0.091,-0.2394 -0.054,-0.3591c0.036,-0.1198 0.1,-0.2095 0.19,-0.2694c0.092,-0.0599 0.191,-0.0846 0.3,-0.0755c0.109,0.0091 0.199,0.0781 0.272,0.2069zM54.5504,39.7132c-0.146,0.1015 -0.302,0.1236 -0.471,0.069c-0.168,-0.0547 -0.288,-0.1614 -0.361,-0.3175c-0.091,-0.1744 -0.1,-0.3513 -0.027,-0.5309c0.072,-0.1796 0.204,-0.2876 0.395,-0.324c0.018,0 0.038,-0.0091 0.061,-0.0273c0.024,-0.0182 0.043,-0.0274 0.062,-0.0274c0.118,-0.0637 0.24,-0.0637 0.368,0c0.109,0.056 0.189,0.1341 0.239,0.2343c0.05,0.1015 0.072,0.2069 0.068,0.3175c-0.005,0.1106 -0.036,0.2212 -0.095,0.3305c-0.059,0.1106 -0.139,0.2017 -0.238,0.2758M54.2364,43.9331c0.063,0.0637 0.158,0.1132 0.285,0.1444c0.128,0.0325 0.259,0.0508 0.395,0.0547c0.136,0.0052 0.272,-0.0026 0.409,-0.0208c0.136,-0.0183 0.249,-0.0417 0.34,-0.069c0.173,-0.0547 0.309,-0.1471 0.409,-0.2759c0.1,-0.1288 0.163,-0.2706 0.19,-0.4281c0.027,-0.1561 0.014,-0.3149 -0.041,-0.4762c-0.054,-0.1614 -0.15,-0.3006 -0.285,-0.4203c-0.127,-0.1106 -0.278,-0.2017 -0.45,-0.2759c-0.172,-0.0741 -0.346,-0.1015 -0.518,-0.0832c-0.201,0.0182 -0.373,0.0923 -0.518,0.2212c-0.145,0.1288 -0.252,0.2914 -0.32,0.4892c-0.068,0.1978 -0.098,0.393 -0.089,0.5856c0,0.1015 0.013,0.203 0.041,0.3032c0.027,0.1014 0.078,0.1847 0.151,0.2485M56.3084,39.5883c-0.064,0.0547 -0.132,0.0846 -0.204,0.0898c-0.074,0.0052 -0.142,-0.0117 -0.205,-0.0481c-0.064,-0.0365 -0.114,-0.0924 -0.15,-0.1653c-0.036,-0.0742 -0.055,-0.1522 -0.055,-0.2342c0.009,-0.1106 0.052,-0.2069 0.129,-0.2902c0.078,-0.0833 0.17,-0.1197 0.279,-0.1106c0.092,0 0.166,0.0299 0.225,0.0898c0.059,0.0598 0.101,0.1288 0.122,0.2069c0.024,0.0781 0.024,0.1613 0,0.2485c-0.023,0.0872 -0.07,0.1588 -0.142,0.2134" fill="#A08268"/>
<path id="Vector_97" d="M63.0244,48.8297c-0.382,0.0182 -0.756,0.0208 -1.125,0.0065c-0.368,-0.0131 -0.738,-0.0573 -1.11,-0.1315c-0.228,-0.0455 -0.455,-0.1145 -0.682,-0.2069c-0.227,-0.0923 -0.417,-0.2251 -0.572,-0.4007c-0.1,-0.1197 -0.182,-0.2668 -0.245,-0.4411c-0.063,-0.1744 -0.104,-0.354 -0.122,-0.5374c-0.018,-0.1835 -0.014,-0.367 0.014,-0.5518c0.027,-0.1834 0.082,-0.3396 0.163,-0.4684c0.109,-0.1562 0.237,-0.2668 0.382,-0.3305c0.208,-0.0833 0.427,-0.1262 0.654,-0.1314c0.228,-0.0052 0.445,0.0156 0.654,0.0624c0.137,0.0273 0.27,0.0638 0.403,0.1106c0.131,0.0469 0.266,0.0898 0.402,0.1314c0.136,0.0417 0.272,0.0755 0.409,0.1028c0.136,0.0274 0.272,0.0365 0.408,0.0274c0.101,0 0.2,-0.0209 0.3,-0.0625c0.1,-0.0416 0.15,-0.1119 0.15,-0.2134c0,-0.0637 -0.029,-0.121 -0.088,-0.1731c-0.06,-0.0507 -0.13,-0.0923 -0.211,-0.1236c-0.082,-0.0325 -0.169,-0.0598 -0.259,-0.0832c-0.091,-0.0222 -0.168,-0.043 -0.231,-0.0625c-0.29,-0.0833 -0.583,-0.1627 -0.879,-0.242c-0.296,-0.0781 -0.58,-0.1809 -0.852,-0.3097c-0.19,-0.0924 -0.373,-0.2017 -0.545,-0.3305c-0.172,-0.1288 -0.309,-0.285 -0.409,-0.4685c-0.145,-0.2667 -0.24,-0.5517 -0.287,-0.8549c-0.045,-0.3032 -0.032,-0.6024 0.042,-0.8965c0.045,-0.2212 0.131,-0.4294 0.258,-0.6272c0.127,-0.1978 0.272,-0.3748 0.436,-0.5309c0.417,-0.3682 0.903,-0.5934 1.457,-0.6753c0.309,-0.0547 0.625,-0.0625 0.947,-0.0208c0.323,0.0416 0.629,0.1223 0.919,0.2407c0.119,-0.0638 0.268,-0.1288 0.45,-0.1926c0.182,-0.0638 0.368,-0.1145 0.559,-0.1522c0.191,-0.0365 0.374,-0.0534 0.552,-0.0482c0.177,0.0052 0.32,0.0482 0.429,0.1314c0.045,0.0365 0.084,0.0833 0.116,0.138c0.032,0.0546 0.056,0.1158 0.074,0.1795c0.027,0.1015 0.048,0.2512 0.062,0.4477c0.014,0.1977 0.021,0.4046 0.021,0.6206c0,0.216 -0.009,0.4255 -0.027,0.6272c-0.018,0.2017 -0.041,0.354 -0.068,0.4554c-0.036,0.1015 -0.089,0.1978 -0.157,0.2902c-0.068,0.0924 -0.152,0.1614 -0.252,0.2069c-0.127,0.0651 -0.266,0.095 -0.415,0.0898c-0.151,-0.0039 -0.297,-0.0247 -0.443,-0.0625c-0.317,-0.0741 -0.622,-0.1743 -0.912,-0.3031c-0.291,-0.1289 -0.595,-0.2304 -0.913,-0.3032c-0.082,-0.0182 -0.165,-0.0248 -0.252,-0.0209c-0.086,0.0053 -0.163,0.0235 -0.231,0.0547c-0.068,0.0325 -0.125,0.0755 -0.17,0.1314c-0.046,0.056 -0.064,0.1236 -0.054,0.2069c0.009,0.0924 0.054,0.1679 0.137,0.2277c0.082,0.0599 0.168,0.108 0.258,0.1445c0.045,0.0182 0.139,0.0442 0.279,0.0754c0.14,0.0326 0.293,0.0664 0.456,0.1028c0.163,0.0365 0.318,0.0742 0.463,0.1106c0.145,0.0365 0.24,0.0599 0.287,0.069c0.281,0.082 0.563,0.1887 0.844,0.3175c0.281,0.1288 0.527,0.2993 0.735,0.5101c0.208,0.2121 0.374,0.458 0.498,0.7378c0.122,0.281 0.192,0.566 0.21,0.8549c0.018,0.2901 -0.015,0.5764 -0.102,0.8627c-0.087,0.2849 -0.23,0.5374 -0.43,0.7586c-0.136,0.1561 -0.295,0.2915 -0.477,0.4073c-0.182,0.1145 -0.367,0.2095 -0.559,0.2823c-0.217,0.0729 -0.441,0.1263 -0.667,0.1588c-0.227,0.0325 -0.453,0.0572 -0.681,0.0755" fill="#A08268"/>
</g></svg>